<?xml version="1.0" standalone="no"?>
<!DOCTYPE svg PUBLIC "-//W3C//DTD SVG 20010904//EN"
 "http://www.w3.org/TR/2001/REC-SVG-20010904/DTD/svg10.dtd">
<svg version="1.0" xmlns="http://www.w3.org/2000/svg"
 width="210.000000pt" height="210.000000pt" viewBox="0 0 210.000000 210.000000"
 preserveAspectRatio="xMidYMid meet">
<metadata>
Created by potrace 1.10, written by Peter Selinger 2001-2011
</metadata>
<g transform="translate(0.000000,210.000000) scale(0.100000,-0.100000)"
fill="#00ffff" stroke="none">
<path d="M255 1839 c-6 -8 -8 -1529 -3 -1535 4 -3 237 -5 516 -4 l132 0 0 80
0 80 -224 0 c-176 0 -226 3 -235 14 -8 9 -10 177 -9 607 l3 594 220 3 c132 1
223 6 230 13 5 5 10 41 11 79 1 57 -1 70 -15 75 -27 8 -621 3 -626 -6z"/>
<path d="M675 1513 c10 -16 30 -44 45 -63 15 -19 47 -64 72 -100 25 -36 73
-105 108 -155 67 -95 109 -155 229 -328 81 -117 78 -116 127 -45 16 24 55 79
87 123 31 44 87 123 122 175 86 126 90 130 109 130 15 0 16 -40 16 -457 0
-252 4 -464 9 -471 5 -9 30 -12 87 -10 l79 3 3 613 2 612 -109 0 -109 0 -43
-62 c-23 -35 -58 -85 -78 -113 -19 -27 -68 -97 -109 -155 -86 -122 -101 -140
-117 -140 -7 0 -35 33 -62 73 -27 39 -77 110 -110 157 -32 47 -75 107 -94 135
-75 108 -70 105 -182 105 l-99 0 17 -27z"/>
</g>
</svg>
